<svg width="198" height="30" viewBox="0 0 198 30" fill="none" xmlns="http://www.w3.org/2000/svg">
<path d="M28 29H4V5H28V29ZM12 13V21.7305H20.7305V13H12Z" fill="black"/>
<rect y="1" width="16.36" height="16.36" fill="black"/>
<path d="M36.3672 29V5H45.3672C47.2109 5 48.7578 5.34375 50.0078 6.03125C51.2656 6.71875 52.2148 7.66406 52.8555 8.86719C53.5039 10.0625 53.8281 11.4219 53.8281 12.9453C53.8281 14.4844 53.5039 15.8516 52.8555 17.0469C52.207 18.2422 51.25 19.1836 49.9844 19.8711C48.7188 20.5508 47.1602 20.8906 45.3086 20.8906H39.3438V17.3164H44.7227C45.8008 17.3164 46.6836 17.1289 47.3711 16.7539C48.0586 16.3789 48.5664 15.8633 48.8945 15.207C49.2305 14.5508 49.3984 13.7969 49.3984 12.9453C49.3984 12.0938 49.2305 11.3438 48.8945 10.6953C48.5664 10.0469 48.0547 9.54297 47.3594 9.18359C46.6719 8.81641 45.7852 8.63281 44.6992 8.63281H40.7148V29H36.3672ZM64.1279 29.3516C62.3232 29.3516 60.7646 28.9766 59.4521 28.2266C58.1475 27.4687 57.1436 26.3984 56.4404 25.0156C55.7373 23.625 55.3857 21.9883 55.3857 20.1055C55.3857 18.2539 55.7373 16.6289 56.4404 15.2305C57.1514 13.8242 58.1436 12.7305 59.417 11.9492C60.6904 11.1602 62.1865 10.7656 63.9053 10.7656C65.0146 10.7656 66.0615 10.9453 67.0459 11.3047C68.0381 11.6562 68.9131 12.2031 69.6709 12.9453C70.4365 13.6875 71.0381 14.6328 71.4756 15.7812C71.9131 16.9219 72.1318 18.2812 72.1318 19.8594V21.1602H57.3779V18.3008H68.0654C68.0576 17.4883 67.8818 16.7656 67.5381 16.1328C67.1943 15.4922 66.7139 14.9883 66.0967 14.6211C65.4873 14.2539 64.7764 14.0703 63.9639 14.0703C63.0967 14.0703 62.335 14.2812 61.6787 14.7031C61.0225 15.1172 60.5107 15.6641 60.1436 16.3437C59.7842 17.0156 59.6006 17.7539 59.5928 18.5586V21.0547C59.5928 22.1016 59.7842 23 60.167 23.75C60.5498 24.4922 61.085 25.0625 61.7725 25.4609C62.46 25.8516 63.2646 26.0469 64.1865 26.0469C64.8037 26.0469 65.3623 25.9609 65.8623 25.7891C66.3623 25.6094 66.7959 25.3477 67.1631 25.0039C67.5303 24.6602 67.8076 24.2344 67.9951 23.7266L71.9561 24.1719C71.7061 25.2187 71.2295 26.1328 70.5264 26.9141C69.8311 27.6875 68.9404 28.2891 67.8545 28.7187C66.7686 29.1406 65.5264 29.3516 64.1279 29.3516ZM82.6895 29.3516C80.8848 29.3516 79.3262 28.9766 78.0137 28.2266C76.709 27.4687 75.7051 26.3984 75.002 25.0156C74.2988 23.625 73.9473 21.9883 73.9473 20.1055C73.9473 18.2539 74.2988 16.6289 75.002 15.2305C75.7129 13.8242 76.7051 12.7305 77.9785 11.9492C79.252 11.1602 80.748 10.7656 82.4668 10.7656C83.5762 10.7656 84.623 10.9453 85.6074 11.3047C86.5996 11.6562 87.4746 12.2031 88.2324 12.9453C88.998 13.6875 89.5996 14.6328 90.0371 15.7812C90.4746 16.9219 90.6934 18.2812 90.6934 19.8594V21.1602H75.9395V18.3008H86.627C86.6191 17.4883 86.4434 16.7656 86.0996 16.1328C85.7559 15.4922 85.2754 14.9883 84.6582 14.6211C84.0488 14.2539 83.3379 14.0703 82.5254 14.0703C81.6582 14.0703 80.8965 14.2812 80.2402 14.7031C79.584 15.1172 79.0723 15.6641 78.7051 16.3437C78.3457 17.0156 78.1621 17.7539 78.1543 18.5586V21.0547C78.1543 22.1016 78.3457 23 78.7285 23.75C79.1113 24.4922 79.6465 25.0625 80.334 25.4609C81.0215 25.8516 81.8262 26.0469 82.748 26.0469C83.3652 26.0469 83.9238 25.9609 84.4238 25.7891C84.9238 25.6094 85.3574 25.3477 85.7246 25.0039C86.0918 24.6602 86.3691 24.2344 86.5566 23.7266L90.5176 24.1719C90.2676 25.2187 89.791 26.1328 89.0879 26.9141C88.3926 27.6875 87.502 28.2891 86.416 28.7187C85.3301 29.1406 84.0879 29.3516 82.6895 29.3516ZM97.1494 23.3516L97.1377 18.2305H97.8174L104.286 11H109.243L101.286 19.8594H100.407L97.1494 23.3516ZM93.2822 29V5H97.5244V29H93.2822ZM104.579 29L98.7197 20.8086L101.579 17.8203L109.653 29H104.579ZM111.258 29V5H115.5V13.9766H115.676C115.895 13.5391 116.203 13.0742 116.602 12.582C117 12.082 117.539 11.6562 118.219 11.3047C118.898 10.9453 119.766 10.7656 120.82 10.7656C122.211 10.7656 123.465 11.1211 124.582 11.832C125.707 12.5352 126.598 13.5781 127.254 14.9609C127.918 16.3359 128.25 18.0234 128.25 20.0234C128.25 22 127.926 23.6797 127.277 25.0625C126.629 26.4453 125.746 27.5 124.629 28.2266C123.512 28.9531 122.246 29.3164 120.832 29.3164C119.801 29.3164 118.945 29.1445 118.266 28.8008C117.586 28.457 117.039 28.043 116.625 27.5586C116.219 27.0664 115.902 26.6016 115.676 26.1641H115.43V29H111.258ZM115.418 20C115.418 21.1641 115.582 22.1836 115.91 23.0586C116.246 23.9336 116.727 24.6172 117.352 25.1094C117.984 25.5937 118.75 25.8359 119.648 25.8359C120.586 25.8359 121.371 25.5859 122.004 25.0859C122.637 24.5781 123.113 23.8867 123.434 23.0117C123.762 22.1289 123.926 21.125 123.926 20C123.926 18.8828 123.766 17.8906 123.445 17.0234C123.125 16.1562 122.648 15.4766 122.016 14.9844C121.383 14.4922 120.594 14.2461 119.648 14.2461C118.742 14.2461 117.973 14.4844 117.34 14.9609C116.707 15.4375 116.227 16.1055 115.898 16.9648C115.578 17.8242 115.418 18.8359 115.418 20ZM138.708 29.3516C136.95 29.3516 135.427 28.9648 134.138 28.1914C132.849 27.418 131.849 26.3359 131.138 24.9453C130.435 23.5547 130.083 21.9297 130.083 20.0703C130.083 18.2109 130.435 16.582 131.138 15.1836C131.849 13.7852 132.849 12.6992 134.138 11.9258C135.427 11.1523 136.95 10.7656 138.708 10.7656C140.466 10.7656 141.989 11.1523 143.278 11.9258C144.567 12.6992 145.563 13.7852 146.267 15.1836C146.978 16.582 147.333 18.2109 147.333 20.0703C147.333 21.9297 146.978 23.5547 146.267 24.9453C145.563 26.3359 144.567 27.418 143.278 28.1914C141.989 28.9648 140.466 29.3516 138.708 29.3516ZM138.731 25.9531C139.685 25.9531 140.481 25.6914 141.122 25.168C141.763 24.6367 142.239 23.9258 142.552 23.0352C142.872 22.1445 143.032 21.1523 143.032 20.0586C143.032 18.957 142.872 17.9609 142.552 17.0703C142.239 16.1719 141.763 15.457 141.122 14.9258C140.481 14.3945 139.685 14.1289 138.731 14.1289C137.755 14.1289 136.942 14.3945 136.294 14.9258C135.653 15.457 135.173 16.1719 134.853 17.0703C134.54 17.9609 134.384 18.957 134.384 20.0586C134.384 21.1523 134.54 22.1445 134.853 23.0352C135.173 23.9258 135.653 24.6367 136.294 25.168C136.942 25.6914 137.755 25.9531 138.731 25.9531ZM155.113 29.3633C153.973 29.3633 152.945 29.1602 152.031 28.7539C151.125 28.3398 150.406 27.7305 149.875 26.9258C149.352 26.1211 149.09 25.1289 149.09 23.9492C149.09 22.9336 149.277 22.0937 149.652 21.4297C150.027 20.7656 150.539 20.2344 151.188 19.8359C151.836 19.4375 152.566 19.1367 153.379 18.9336C154.199 18.7227 155.047 18.5703 155.922 18.4766C156.977 18.3672 157.832 18.2695 158.488 18.1836C159.145 18.0898 159.621 17.9492 159.918 17.7617C160.223 17.5664 160.375 17.2656 160.375 16.8594V16.7891C160.375 15.9063 160.113 15.2227 159.59 14.7383C159.066 14.2539 158.312 14.0117 157.328 14.0117C156.289 14.0117 155.465 14.2383 154.855 14.6914C154.254 15.1445 153.848 15.6797 153.637 16.2969L149.676 15.7344C149.988 14.6406 150.504 13.7266 151.223 12.9922C151.941 12.25 152.82 11.6953 153.859 11.3281C154.898 10.9531 156.047 10.7656 157.305 10.7656C158.172 10.7656 159.035 10.8672 159.895 11.0703C160.754 11.2734 161.539 11.6094 162.25 12.0781C162.961 12.5391 163.531 13.168 163.961 13.9648C164.398 14.7617 164.617 15.7578 164.617 16.9531V29H160.539V26.5273H160.398C160.141 27.0273 159.777 27.4961 159.309 27.9336C158.848 28.3633 158.266 28.7109 157.563 28.9766C156.867 29.2344 156.051 29.3633 155.113 29.3633ZM156.215 26.2461C157.066 26.2461 157.805 26.0781 158.43 25.7422C159.055 25.3984 159.535 24.9453 159.871 24.3828C160.215 23.8203 160.387 23.207 160.387 22.543V20.4219C160.254 20.5312 160.027 20.6328 159.707 20.7266C159.395 20.8203 159.043 20.9023 158.652 20.9727C158.262 21.043 157.875 21.1055 157.492 21.1602C157.109 21.2148 156.777 21.2617 156.496 21.3008C155.863 21.3867 155.297 21.5273 154.797 21.7227C154.297 21.918 153.902 22.1914 153.613 22.543C153.324 22.8867 153.18 23.332 153.18 23.8789C153.18 24.6602 153.465 25.25 154.035 25.6484C154.605 26.0469 155.332 26.2461 156.215 26.2461ZM167.883 29V11H171.996V14H172.184C172.512 12.9609 173.074 12.1602 173.871 11.5977C174.676 11.0273 175.594 10.7422 176.625 10.7422C176.859 10.7422 177.121 10.7539 177.41 10.7773C177.707 10.793 177.953 10.8203 178.148 10.8594V14.7617C177.969 14.6992 177.684 14.6445 177.293 14.5977C176.91 14.543 176.539 14.5156 176.18 14.5156C175.406 14.5156 174.711 14.6836 174.094 15.0195C173.484 15.3477 173.004 15.8047 172.652 16.3906C172.301 16.9766 172.125 17.6523 172.125 18.418V29H167.883ZM185.905 29.3164C184.491 29.3164 183.226 28.9531 182.108 28.2266C180.991 27.5 180.108 26.4453 179.46 25.0625C178.812 23.6797 178.487 22 178.487 20.0234C178.487 18.0234 178.815 16.3359 179.472 14.9609C180.136 13.5781 181.03 12.5352 182.155 11.832C183.28 11.1211 184.534 10.7656 185.917 10.7656C186.972 10.7656 187.839 10.9453 188.519 11.3047C189.198 11.6562 189.737 12.082 190.136 12.582C190.534 13.0742 190.843 13.5391 191.062 13.9766H191.237V5H195.491V29H191.319V26.1641H191.062C190.843 26.6016 190.526 27.0664 190.112 27.5586C189.698 28.043 189.151 28.457 188.472 28.8008C187.792 29.1445 186.937 29.3164 185.905 29.3164ZM187.089 25.8359C187.987 25.8359 188.753 25.5937 189.386 25.1094C190.019 24.6172 190.499 23.9336 190.827 23.0586C191.155 22.1836 191.319 21.1641 191.319 20C191.319 18.8359 191.155 17.8242 190.827 16.9648C190.507 16.1055 190.03 15.4375 189.397 14.9609C188.772 14.4844 188.003 14.2461 187.089 14.2461C186.144 14.2461 185.354 14.4922 184.722 14.9844C184.089 15.4766 183.612 16.1562 183.292 17.0234C182.972 17.8906 182.812 18.8828 182.812 20C182.812 21.125 182.972 22.1289 183.292 23.0117C183.62 23.8867 184.101 24.5781 184.733 25.0859C185.374 25.5859 186.159 25.8359 187.089 25.8359Z" fill="#0A0A0A"/>
</svg>
